<svg id="visual" viewBox="0 0 900 600" width="900" height="600" xmlns="http://www.w3.org/2000/svg" xmlns:xlink="http://www.w3.org/1999/xlink" version="1.1"><rect x="0" y="0" width="900" height="600" fill="#ffffff"></rect><defs><linearGradient id="grad1_0" x1="33.3%" y1="0%" x2="100%" y2="100%"><stop offset="20%" stop-color="#4da595" stop-opacity="1"></stop><stop offset="80%" stop-color="#4da595" stop-opacity="1"></stop></linearGradient></defs><defs><linearGradient id="grad1_1" x1="33.3%" y1="0%" x2="100%" y2="100%"><stop offset="20%" stop-color="#4da595" stop-opacity="1"></stop><stop offset="80%" stop-color="#a9d2c9" stop-opacity="1"></stop></linearGradient></defs><defs><linearGradient id="grad1_2" x1="33.3%" y1="0%" x2="100%" y2="100%"><stop offset="20%" stop-color="#ffffff" stop-opacity="1"></stop><stop offset="80%" stop-color="#a9d2c9" stop-opacity="1"></stop></linearGradient></defs><defs><linearGradient id="grad2_0" x1="0%" y1="0%" x2="66.7%" y2="100%"><stop offset="20%" stop-color="#4da595" stop-opacity="1"></stop><stop offset="80%" stop-color="#4da595" stop-opacity="1"></stop></linearGradient></defs><defs><linearGradient id="grad2_1" x1="0%" y1="0%" x2="66.7%" y2="100%"><stop offset="20%" stop-color="#a9d2c9" stop-opacity="1"></stop><stop offset="80%" stop-color="#4da595" stop-opacity="1"></stop></linearGradient></defs><defs><linearGradient id="grad2_2" x1="0%" y1="0%" x2="66.7%" y2="100%"><stop offset="20%" stop-color="#a9d2c9" stop-opacity="1"></stop><stop offset="80%" stop-color="#ffffff" stop-opacity="1"></stop></linearGradient></defs><g transform="translate(900, 0)"><path d="M0 243.4C-28.4 232.4 -56.9 221.4 -87.6 211.6C-118.4 201.7 -151.5 193 -172.1 172.1C-192.7 151.2 -200.8 118 -210.6 87.3C-220.4 56.5 -231.9 28.3 -243.4 0L0 0Z" fill="#d4e8e4"></path><path d="M0 162.2C-19 154.9 -37.9 147.6 -58.4 141C-78.9 134.5 -101 128.7 -114.7 114.7C-128.5 100.8 -133.9 78.6 -140.4 58.2C-147 37.7 -154.6 18.8 -162.2 0L0 0Z" fill="#7dbbae"></path><path d="M0 81.1C-9.5 77.5 -19 73.8 -29.2 70.5C-39.5 67.2 -50.5 64.3 -57.4 57.4C-64.2 50.4 -66.9 39.3 -70.2 29.1C-73.5 18.8 -77.3 9.4 -81.1 0L0 0Z" fill="#4da595"></path></g><g transform="translate(0, 600)"><path d="M0 -243.4C29.4 -235.3 58.9 -227.2 89.9 -217.1C121 -207.1 153.7 -195.1 172.1 -172.1C190.5 -149.1 194.7 -115.1 204.2 -84.6C213.7 -54.1 228.5 -27 243.4 0L0 0Z" fill="#d4e8e4"></path><path d="M0 -162.2C19.6 -156.8 39.2 -151.4 60 -144.7C80.7 -138 102.4 -130.1 114.7 -114.7C127 -99.4 129.8 -76.7 136.1 -56.4C142.5 -36 152.4 -18 162.2 0L0 0Z" fill="#7dbbae"></path><path d="M0 -81.1C9.8 -78.4 19.6 -75.7 30 -72.4C40.3 -69 51.2 -65 57.4 -57.4C63.5 -49.7 64.9 -38.4 68.1 -28.2C71.2 -18 76.2 -9 81.1 0L0 0Z" fill="#4da595"></path></g></svg>