<svg id="visual" viewBox="0 0 900 600" width="900" height="600" xmlns="http://www.w3.org/2000/svg" xmlns:xlink="http://www.w3.org/1999/xlink" version="1.1"><path d="M0 484L15 465.2C30 446.3 60 408.7 90 415.5C120 422.3 150 473.7 180 500.3C210 527 240 529 270 513.5C300 498 330 465 360 460.3C390 455.7 420 479.3 450 496.8C480 514.3 510 525.7 540 533C570 540.3 600 543.7 630 520.3C660 497 690 447 720 417.5C750 388 780 379 810 388.2C840 397.3 870 424.7 885 438.3L900 452L900 601L885 601C870 601 840 601 810 601C780 601 750 601 720 601C690 601 660 601 630 601C600 601 570 601 540 601C510 601 480 601 450 601C420 601 390 601 360 601C330 601 300 601 270 601C240 601 210 601 180 601C150 601 120 601 90 601C60 601 30 601 15 601L0 601Z" fill="#23ccc1" stroke-linecap="round" stroke-linejoin="miter"></path></svg>